<svg xmlns="http://www.w3.org/2000/svg" version="1.1" viewBox="-5.0 -10.0 110.0 135.0">
 <path d="m51.105 37.242v16.504h2.9258l4.1914 2.4219v23.273h4.4102v-42.191h-11.527zm29.453 51.535v6.4219l-15.777 2.2109h-29.57l-15.777-2.2109v-6.4219c-1.1055-0.11719-2.0938-0.60938-2.8438-1.3477-0.85156-0.85156-1.3789-2.0195-1.3789-3.3047s0.52734-2.4648 1.3789-3.3047c0.68359-0.68359 1.5781-1.1562 2.5703-1.3164v-42.305c-0.98828-0.15625-1.8828-0.63281-2.5703-1.3164-0.85156-0.85156-1.3789-2.0195-1.3789-3.3047s0.52734-2.4648 1.3789-3.3047c0.73828-0.73828 1.707-1.2227 2.7773-1.3477 0.10547-4.1367 2.5352-8.2422 7.293-12.305 5-4.2734 12.641-8.5586 22.906-12.832l0.42188-0.17969 0.42188 0.17969c10.262 4.2852 17.895 8.5586 22.906 12.832 4.7578 4.0625 7.1797 8.168 7.293 12.305 1.0859 0.125 2.0508 0.60938 2.7773 1.3477 0.85156 0.85156 1.3789 2.0195 1.3789 3.3047s-0.52734 2.4648-1.3789 3.3047c-0.73828 0.73828-1.7148 1.2305-2.8008 1.3477v42.242c1.0859 0.11719 2.0742 0.60938 2.8008 1.3477 0.85156 0.85156 1.3789 2.0195 1.3789 3.3047s-0.52734 2.4648-1.3789 3.3047c-0.74609 0.74609-1.7383 1.2422-2.8438 1.3477zm-58.906 0.023437v4.4727l13.672 1.9141h29.336l13.672-1.9141v-4.4727zm34.359-9.3711h-11.254v-22l2.5469-1.4727h6.1484l2.5469 1.4727v22zm-13.477 0v-23.273l4.1914-2.4219h2.168v-16.504h-11.527v42.191h5.168zm-7.3867 0v-42.191h-13.758v15.094l6.7383 4.7773v22.305h7.0195zm-9.2422 0v-21.168l-4.5156-3.2109v24.379zm52.473 0v-23.969l-3.5156 2.1484v21.82zm-5.7461 0v-23.051l5.7383-3.5039v-15.621h-13.527v42.191h7.7773zm7.4609 2.2227h-60.188c-0.67188 0-1.293 0.27344-1.7383 0.72656-0.44141 0.44141-0.72656 1.0625-0.72656 1.7383 0 0.67187 0.27344 1.293 0.72656 1.7383 0.44141 0.44141 1.0625 0.72656 1.7383 0.72656h60.18c0.67187 0 1.293-0.27344 1.7383-0.72656 0.44141-0.44141 0.72656-1.0625 0.72656-1.7383 0-0.67188-0.27344-1.293-0.72656-1.7383-0.44141-0.44141-1.0625-0.72656-1.7383-0.72656zm-48.777-53.777c0.21094-3.5273 1.2109-7.043 3-10.57 1.2109-2.3906 2.7773-4.7773 4.7148-7.168-4.5039 2.3906-8.1367 4.7773-10.914 7.1484-4.2109 3.6016-6.3789 7.125-6.5039 10.59h9.7148zm13.074-20.402c-3.5781 3.6328-6.2734 7.2422-8.0938 10.832-1.6211 3.2109-2.5469 6.3984-2.7578 9.5703h15.359l-0.003907-22.41c-1.5703 0.67188-3.0625 1.3359-4.5039 2.0117zm16.578 2.6641c1.9375 2.3906 3.5039 4.7773 4.7148 7.168 1.7773 3.5273 2.7773 7.043 3 10.57h9.7148c-0.125-3.4648-2.293-6.9883-6.5039-10.59-2.7773-2.3672-6.4102-4.7578-10.914-7.1484zm5.4961 17.738c-0.21094-3.168-1.125-6.3594-2.7578-9.5703-1.8203-3.5898-4.5156-7.1992-8.0938-10.832-1.4297-0.67188-2.9375-1.3359-4.5039-2.0117v22.41h15.359zm13.629 2.2188h-60.188c-0.67188 0-1.293 0.27344-1.7383 0.72656-0.44141 0.44141-0.72656 1.0625-0.72656 1.7383 0 0.67188 0.27344 1.293 0.72656 1.7383 0.44141 0.44141 1.0625 0.72656 1.7383 0.72656h60.18c0.67187 0 1.293-0.27344 1.7383-0.72656 0.44141-0.45312 0.72656-1.0625 0.72656-1.7383 0-0.67188-0.27344-1.293-0.72656-1.7383-0.44141-0.44141-1.0625-0.72656-1.7383-0.72656z" fill-rule="evenodd"/>
<text x="0.0" y="117.5" font-size="5.0" font-weight="bold" font-family="Arbeit Regular, Helvetica, Arial-Unicode, Arial, Sans-serif" fill="#000000">Created by afar</text><text x="0.0" y="122.5" font-size="5.0" font-weight="bold" font-family="Arbeit Regular, Helvetica, Arial-Unicode, Arial, Sans-serif" fill="#000000">from Noun Project</text></svg>